<?xml version="1.0" encoding="utf-8"?>
<!-- Generator: Adobe Illustrator 24.1.1, SVG Export Plug-In . SVG Version: 6.00 Build 0)  -->
<svg version="1.1" id="Capa_1" xmlns="http://www.w3.org/2000/svg" xmlns:xlink="http://www.w3.org/1999/xlink" x="0px" y="0px"
	 viewBox="0 0 392.6 392.6" style="enable-background:new 0 0 392.6 392.6;" xml:space="preserve">
<style type="text/css">
	.st0{fill:#FFFFFF;}
	.st1{fill:#15B2D6;}
</style>
<g>
	<polygon class="st0" points="14,79 63,17 330,17 373,67 377,319.3 340,371 64,377 21,337 	"/>
	<polygon class="st1" points="149.2,222.2 103.8,267.6 103.8,216.8 73.3,247.4 73.3,319.3 145.2,319.3 175.8,288.8 125,288.8 
		170.4,243.4 170.4,222.2 	"/>
	<polygon class="st1" points="243.4,170.4 288.8,125 288.8,175.8 319.3,145.2 319.3,73.3 247.4,73.3 216.8,103.8 267.6,103.8 
		222.2,149.2 222.2,170.4 	"/>
	<polygon class="st1" points="170.4,149.2 125,103.8 175.8,103.8 145.2,73.3 73.3,73.3 73.3,145.2 103.8,175.8 103.8,125 
		149.2,170.4 170.4,170.4 	"/>
	<polygon class="st1" points="288.8,267.6 243.4,222.2 222.2,222.2 222.2,243.4 267.6,288.8 216.8,288.8 247.4,319.3 319.3,319.3 
		319.3,247.4 288.8,216.8 	"/>
	<path class="st1" d="M310.7,0.9H81.9C36.7,0.9,0,37.7,0,82.8v227c0,45.2,36.7,81.9,81.9,81.9h228.8c45.2,0,81.9-36.7,81.9-81.9
		v-227C392.6,37.7,355.9,0.9,310.7,0.9z M362.6,309.8c0,28.6-23.3,51.9-51.9,51.9H81.9c-28.6,0-51.9-23.3-51.9-51.9v-227
		c0-28.6,23.3-51.9,51.9-51.9h228.8c28.6,0,51.9,23.3,51.9,51.9V309.8L362.6,309.8z"/>
	<polygon class="st0" points="243.4,222.2 279.6,222.2 279.6,170.4 243.4,170.4 222.2,170.4 222.2,149.2 222.2,113 170.4,113 
		170.4,149.2 170.4,170.4 149.2,170.4 113,170.4 113,222.2 149.2,222.2 170.4,222.2 170.4,243.4 170.4,279.6 222.2,279.6 
		222.2,243.4 222.2,222.2 	"/>
</g>
</svg>
