<?xml version="1.0" encoding="utf-8"?>
<!-- Generator: Adobe Illustrator 24.1.1, SVG Export Plug-In . SVG Version: 6.00 Build 0)  -->
<svg version="1.1" id="Capa_1" xmlns="http://www.w3.org/2000/svg" xmlns:xlink="http://www.w3.org/1999/xlink" x="0px" y="0px"
	 viewBox="0 0 392.6 392.6" style="enable-background:new 0 0 392.6 392.6;" xml:space="preserve">
<style type="text/css">
	.st0{fill:#FFFFFF;}
	.st1{fill:#15B2D6;}
</style>
<g>
	<polygon class="st0" points="14,79 63,17 330,17 373,67 377,319.3 340,371 64,377 21,337 	"/>
	<polygon class="st1" points="89.9,323.9 135.3,278.5 135.3,329.3 165.8,298.7 165.8,226.8 93.9,226.8 63.3,257.3 114.1,257.3 
		68.7,302.7 68.7,323.9 	"/>
	<polygon class="st1" points="302.7,68.7 257.3,114.1 257.3,63.3 226.8,93.9 226.8,165.8 298.7,165.8 329.3,135.3 278.5,135.3 
		323.9,89.9 323.9,68.7 	"/>
	<polygon class="st1" points="68.7,89.9 114.1,135.3 63.3,135.3 93.9,165.8 165.8,165.8 165.8,93.9 135.3,63.3 135.3,114.1 
		89.9,68.7 68.7,68.7 	"/>
	<polygon class="st1" points="257.3,278.5 302.7,323.9 323.9,323.9 323.9,302.7 278.5,257.3 329.3,257.3 298.7,226.8 226.8,226.8 
		226.8,298.7 257.3,329.3 	"/>
	<path class="st1" d="M310.7,0.9H81.9C36.7,0.9,0,37.7,0,82.8v227c0,45.2,36.7,81.9,81.9,81.9h228.8c45.2,0,81.9-36.7,81.9-81.9
		v-227C392.6,37.7,355.9,0.9,310.7,0.9z M362.6,309.8c0,28.6-23.3,51.9-51.9,51.9H81.9c-28.6,0-51.9-23.3-51.9-51.9v-227
		c0-28.6,23.3-51.9,51.9-51.9h228.8c28.6,0,51.9,23.3,51.9,51.9V309.8L362.6,309.8z"/>
</g>
</svg>
